<?xml version="1.0" encoding="utf-8"?>
<!-- Generator: Adobe Illustrator 17.1.0, SVG Export Plug-In . SVG Version: 6.00 Build 0)  -->
<!DOCTYPE svg PUBLIC "-//W3C//DTD SVG 1.1//EN" "http://www.w3.org/Graphics/SVG/1.1/DTD/svg11.dtd">
<svg version="1.1" id="Layer_1" xmlns="http://www.w3.org/2000/svg" xmlns:xlink="http://www.w3.org/1999/xlink" x="0px" y="0px"
	 viewBox="58 0 52.8 60" enable-background="new 58 0 52.8 60" xml:space="preserve">
<g>
	<g>
		<path fill="#B3282D" d="M99.2,28.4c-0.5-0.5-2.5-1.9-6-4.2c0.7-1,1.5-2.1,2.3-3.1c1.1-1.7,1.7-3.4,1.7-5c0-1.6-0.3-3.1-1-4.5
			c0,0,0,0,0,0c-0.6,0-1.2-0.3-1.8-1c-0.7-0.7-1-1.3-1-2V7.8c-0.1-0.1-0.1-0.1-0.2-0.1c-0.6-0.5-1.1-0.9-1.7-1.3
			C91.2,6.2,91,6.1,90.9,6c-0.3-0.2-0.6-0.3-0.9-0.5c-0.1,0-0.1,0.1-0.2,0.2c-0.2,0.2-0.3,0.4-0.3,0.5v4.3c0,0.2,0.1,0.3,0.2,0.5
			c0.2,0.2,0.2,0.3,0.2,0.4c0,0.1,0,0.2-0.1,0.2c-0.1,0-0.1,0-0.2,0c-0.1-0.1-0.3-0.2-0.4-0.2c-0.2-0.1-0.4-0.1-0.6-0.1
			c-0.3,0-0.5,0-0.7,0.1c-0.2,0.1-0.4,0.1-0.6,0.2h-0.1c0-0.1-0.1-0.1-0.1-0.2c0.1-0.1,0.2-0.3,0.3-0.3c0.2-0.3,0.3-0.5,0.3-0.6V6.3
			c0-0.3-0.1-0.6-0.4-0.7c-0.3-0.1-0.6-0.2-0.8-0.3c0-0.1,0.2-0.3,0.7-0.7C86.1,4.2,84.7,4,83.2,4c-3.3,0-6.2,1.2-8.8,3.6
			c-3.4,3.2-5.1,6.2-5.1,9.1c0,0.4,0.1,0.8,0.4,1.1c0.3,0.3,0.5,0.4,0.8,0.4c1.3-1.2,2.6-2.5,3.9-3.8c1.4-1.1,3.2-1.7,5.2-1.7
			c2.2,0,4.4,0.8,6.6,2.5c2,1.6,3,3.1,3,4.4v3.6c0,1.4-0.8,2.9-2.5,4.3c-3.5,3-5.3,4.6-5.3,4.7c0,0.3,0,0.4-0.1,0.5
			c0,0.3,0,0.6,0.1,0.9h5.1c1.9,0,3.8,1,5.7,2.9c1.8,2,2.8,3.8,2.8,5.5v3c0,1.7-1,3.5-2.9,5.6c-2.4,2.6-5.3,4-8.9,4
			c-3,0-5.6-1.1-7.9-3.3c-2-1.9-3-3.8-3-5.7v-2.8c0-1,0.2-1.7,0.7-2c0.1,0,0.2-0.1,0.3-0.1v-1.8h-9c-1,0-1.5,0.7-1.5,2.2
			c0,5.1,1.8,9.4,5.5,13.1c3.1,3.1,6.2,4.7,9.3,4.7H83c1.9,0,4.4-0.8,7.5-2.4c3.5-1.8,6.4-4.2,8.6-7c2.7-3.5,4.1-7.4,4.1-11.7
			C103.1,34.2,101.8,31,99.2,28.4z"/>
	</g>
</g>
<g>
	<path fill="#B3282D" d="M91.9,4.1c-0.4-0.1-0.7-0.2-0.8-0.2c-0.4,0-0.8,0.2-1.1,0.6c-0.3,0.4-0.5,0.6-0.6,0.6
		c-0.2-0.5-0.6-0.9-1-1.1c-0.1,0-0.1-0.1-0.3-0.1c-0.1,0-0.4,0.2-0.9,0.6c0,0,0,0,0,0c0.9,0.2,1.8,0.6,2.7,1
		c0.1-0.1,0.2-0.2,0.3-0.2c0.2,0,0.4,0.1,0.5,0.2c0.1,0.1,0.1,0.2,0.1,0.3v0.5c0,0.1,0,0.2,0,0.3h0.2l0.3-0.4l1.3-1.9
		C92.5,4.3,92.3,4.2,91.9,4.1z"/>
	<path fill="#B3282D" d="M100.2,10.1V1.2c0-0.2,0.1-0.4,0.3-0.7c0.1-0.1,0.2-0.2,0.3-0.3c0-0.1-0.1-0.2-0.3-0.2
		c-0.1,0-0.6,0.2-1.4,0.6c-0.3,0.1-0.7,0.4-1.2,0.6c0,0.1,0.1,0.2,0.3,0.4c0.2,0.2,0.3,0.4,0.3,0.7v1.8l-0.2,0.2
		C98.1,4.1,97.9,4,97.7,4c-0.1-0.1-0.2-0.1-0.3-0.1h-0.8c-0.2,0-0.7,0.2-1.2,0.7C94.8,5,94.3,5.5,93.9,6c-0.5,0.6-0.7,1.2-0.7,1.6
		v0.2c1.3,1.2,2.3,2.5,2.9,3.8c0.4,0,0.7-0.1,1.1-0.3c0.3-0.2,0.7-0.5,1.2-0.8c0,0.1,0,0.2,0,0.3c0,0.1,0,0.2,0,0.3
		c0,0.1,0,0.2,0.1,0.3s0.1,0.1,0.2,0.1c0.1,0,0.2-0.1,0.5-0.1c0.1,0,0.3-0.1,0.4-0.1c0.2,0,0.4,0,0.6,0.1c0.2,0.1,0.3,0.1,0.3,0.1
		c0.1,0,0.2-0.1,0.2-0.3c0-0.1-0.1-0.3-0.2-0.6S100.2,10.2,100.2,10.1z M98.4,9.3c-0.2,0.1-0.3,0.3-0.5,0.4
		c-0.2,0.1-0.3,0.2-0.5,0.2h-0.5c-0.6,0-1.1-0.2-1.5-0.7c-0.4-0.4-0.7-1-0.9-1.7c0,0,0.1-0.1,0.1-0.1V7.1c0-0.6,0.2-1.1,0.5-1.5
		C95.4,5.2,95.8,5,96.4,5c0.3,0,0.6,0.1,1,0.4c0.4,0.2,0.7,0.5,1,0.8V9.3z"/>
</g>
<g>
	<path fill="#B3282D" d="M106.6,5.5c-0.2,0.2-0.6,0.3-1.2,0.3c-0.6,0.1-1.2,0.1-1.7-0.1c-0.6-0.1-1.1-0.4-1.4-0.8
		c-0.4-0.6-0.5-1.3-0.3-2.1c0.2-0.9,0.6-1.6,1.3-2c0.2-0.1,0.5-0.2,1-0.4c0.4-0.1,0.7-0.2,0.7-0.2c0.4,0,0.9,0,1.4,0.1
		c0.7,0.2,1.1,0.4,1.3,0.8l0.3,0.4c0.1,0.2,0.2,0.4,0.2,0.8c0,0.3,0,0.6-0.1,0.9c-0.1,0.3-0.1,0.5-0.2,0.7c-0.2,0.5-0.5,0.9-0.9,1.1
		L106.6,5.5z M105.4,5.5L106,5c0.2-0.3,0.4-0.6,0.5-0.8c0.2-0.3,0.3-0.6,0.3-0.8c0.1-0.3,0.1-0.5,0.1-0.7c0.1-0.5,0-0.9-0.2-1.2
		l-0.3-0.4c-0.1-0.2-0.4-0.3-0.8-0.4c-0.4,0-0.7,0-0.9,0.1l-0.7,0.4c-0.2,0.1-0.4,0.4-0.6,0.9c-0.1,0.1-0.2,0.4-0.3,0.7
		c-0.1,0.4-0.2,0.8-0.2,1.2c0,0.3,0.1,0.6,0.2,0.7l0.2,0.3c0.2,0.3,0.6,0.4,1.1,0.5C104.8,5.5,105,5.5,105.4,5.5z"/>
</g>
</svg>
