<?xml version="1.0" encoding="utf-8"?>
<!-- Generator: Adobe Illustrator 17.1.0, SVG Export Plug-In . SVG Version: 6.00 Build 0)  -->
<!DOCTYPE svg PUBLIC "-//W3C//DTD SVG 1.1//EN" "http://www.w3.org/Graphics/SVG/1.1/DTD/svg11.dtd">
<svg version="1.1" id="Layer_1" xmlns="http://www.w3.org/2000/svg" xmlns:xlink="http://www.w3.org/1999/xlink" x="0px" y="0px"
	 viewBox="0 -11.9 848.2 96.5" enable-background="new 0 -11.9 848.2 96.5" xml:space="preserve">
<g>
	<g>
		<path fill="#B3282D" d="M36.4,28.9c-0.5-0.5-2.5-1.9-6-4.2c0.7-1,1.5-2.1,2.3-3.1c1.1-1.7,1.7-3.4,1.7-5s-0.3-3.1-1-4.5l0,0
			c-0.6,0-1.2-0.3-1.8-1c-0.7-0.7-1-1.3-1-2V8.3c-0.1-0.1-0.1-0.1-0.2-0.1c-0.6-0.5-1.1-0.9-1.7-1.3c-0.3-0.2-0.5-0.3-0.6-0.4
			c-0.3-0.2-0.6-0.3-0.9-0.5c-0.1,0-0.1,0.1-0.2,0.2c-0.2,0.2-0.3,0.4-0.3,0.5V11c0,0.2,0.1,0.3,0.2,0.5c0.2,0.2,0.2,0.3,0.2,0.4
			c0,0.1,0,0.2-0.1,0.2s-0.1,0-0.2,0c-0.1-0.1-0.3-0.2-0.4-0.2c-0.2-0.1-0.4-0.1-0.6-0.1c-0.3,0-0.5,0-0.7,0.1s-0.4,0.1-0.6,0.2
			h-0.1c0-0.1-0.1-0.1-0.1-0.2c0.1-0.1,0.2-0.3,0.3-0.3c0.2-0.3,0.3-0.5,0.3-0.6V6.8c0-0.3-0.1-0.6-0.4-0.7s-0.6-0.2-0.8-0.3
			c0-0.1,0.2-0.3,0.7-0.7c-1.1-0.4-2.5-0.6-4-0.6c-3.3,0-6.2,1.2-8.8,3.6c-3.4,3.2-5.1,6.2-5.1,9.1c0,0.4,0.1,0.8,0.4,1.1
			c0.3,0.3,0.5,0.4,0.8,0.4c1.3-1.2,2.6-2.5,3.9-3.8c1.4-1.1,3.2-1.7,5.2-1.7c2.2,0,4.4,0.8,6.6,2.5c2,1.6,3,3.1,3,4.4v3.6
			c0,1.4-0.8,2.9-2.5,4.3c-3.5,3-5.3,4.6-5.3,4.7c0,0.3,0,0.4-0.1,0.5c0,0.3,0,0.6,0.1,0.9h5.1c1.9,0,3.8,1,5.7,2.9
			c1.8,2,2.8,3.8,2.8,5.5v3c0,1.7-1,3.5-2.9,5.6c-2.4,2.6-5.3,4-8.9,4c-3,0-5.6-1.1-7.9-3.3c-2-1.9-3-3.8-3-5.7v-2.8
			c0-1,0.2-1.7,0.7-2c0.1,0,0.2-0.1,0.3-0.1v-1.8h-9c-1,0-1.5,0.7-1.5,2.2c0,5.1,1.8,9.4,5.5,13.1c3.1,3.1,6.2,4.7,9.3,4.7h5.4
			c1.9,0,4.4-0.8,7.5-2.4c3.5-1.8,6.4-4.2,8.6-7c2.7-3.5,4.1-7.4,4.1-11.7C40.3,34.8,39,31.5,36.4,28.9z"/>
	</g>
</g>
<g>
	<path fill="#B3282D" d="M29.1,4.6c-0.4-0.1-0.7-0.2-0.8-0.2c-0.4,0-0.8,0.2-1.1,0.6c-0.3,0.4-0.5,0.6-0.6,0.6
		c-0.2-0.5-0.6-0.9-1-1.1c-0.1,0-0.1-0.1-0.3-0.1c-0.1,0-0.4,0.2-0.9,0.6l0,0c0.9,0.2,1.8,0.6,2.7,1c0.1-0.1,0.2-0.2,0.3-0.2
		c0.2,0,0.4,0.1,0.5,0.2S28,6.2,28,6.3v0.5c0,0.1,0,0.2,0,0.3h0.2l0.3-0.4l1.3-1.9C29.7,4.8,29.5,4.7,29.1,4.6z"/>
	<path fill="#B3282D" d="M37.4,10.6V1.7c0-0.2,0.1-0.4,0.3-0.7c0.1-0.1,0.2-0.2,0.3-0.3c0-0.1-0.1-0.2-0.3-0.2
		c-0.1,0-0.6,0.2-1.4,0.6c-0.3,0.1-0.7,0.4-1.2,0.6c0,0.1,0.1,0.2,0.3,0.4c0.2,0.2,0.3,0.4,0.3,0.7v1.8l-0.2,0.2
		c-0.2-0.2-0.4-0.3-0.6-0.3c-0.1-0.1-0.2-0.1-0.3-0.1h-0.8c-0.2,0-0.7,0.2-1.2,0.7C32,5.5,31.5,6,31.1,6.5c-0.5,0.6-0.7,1.2-0.7,1.6
		v0.2c1.3,1.2,2.3,2.5,2.9,3.8c0.4,0,0.7-0.1,1.1-0.3c0.3-0.2,0.7-0.5,1.2-0.8c0,0.1,0,0.2,0,0.3s0,0.2,0,0.3s0,0.2,0.1,0.3
		s0.1,0.1,0.2,0.1s0.2-0.1,0.5-0.1c0.1,0,0.3-0.1,0.4-0.1c0.2,0,0.4,0,0.6,0.1s0.3,0.1,0.3,0.1c0.1,0,0.2-0.1,0.2-0.3
		c0-0.1-0.1-0.3-0.2-0.6S37.4,10.7,37.4,10.6z M35.6,9.8c-0.2,0.1-0.3,0.3-0.5,0.4c-0.2,0.1-0.3,0.2-0.5,0.2h-0.5
		c-0.6,0-1.1-0.2-1.5-0.7c-0.4-0.4-0.7-1-0.9-1.7l0.1-0.1V7.6c0-0.6,0.2-1.1,0.5-1.5s0.7-0.6,1.3-0.6c0.3,0,0.6,0.1,1,0.4
		c0.4,0.2,0.7,0.5,1,0.8V9.8z"/>
</g>
<g>
	<path fill="#B3282D" d="M43.8,6c-0.2,0.2-0.6,0.3-1.2,0.3c-0.6,0.1-1.2,0.1-1.7-0.1c-0.6-0.1-1.1-0.4-1.4-0.8
		c-0.4-0.6-0.5-1.3-0.3-2.1c0.2-0.9,0.6-1.6,1.3-2c0.2-0.1,0.5-0.2,1-0.4c0.4-0.1,0.7-0.2,0.7-0.2c0.4,0,0.9,0,1.4,0.1
		c0.7,0.2,1.1,0.4,1.3,0.8L45.2,2c0.1,0.2,0.2,0.4,0.2,0.8c0,0.3,0,0.6-0.1,0.9c-0.1,0.3-0.1,0.5-0.2,0.7c-0.2,0.5-0.5,0.9-0.9,1.1
		L43.8,6z M42.6,6l0.6-0.5c0.2-0.3,0.4-0.6,0.5-0.8C43.9,4.4,44,4.1,44,3.9c0.1-0.3,0.1-0.5,0.1-0.7c0.1-0.5,0-0.9-0.2-1.2l-0.3-0.4
		c-0.1-0.2-0.4-0.3-0.8-0.4c-0.4,0-0.7,0-0.9,0.1l-0.7,0.4c-0.2,0.1-0.4,0.4-0.6,0.9c-0.1,0.1-0.2,0.4-0.3,0.7
		c-0.1,0.4-0.2,0.8-0.2,1.2c0,0.3,0.1,0.6,0.2,0.7l0.2,0.3c0.2,0.3,0.6,0.4,1.1,0.5C42,6,42.2,6,42.6,6z"/>
</g>
<g>
	<path fill="#B3282D" d="M184-1.6c0,0.2-2,2.2-5.9,6.2c-2.1,2.1-3.6,3.8-4.4,5c-2,3-3.8,6.2-5.5,9.6c-0.6,1.3-1.4,2-2.3,2
		c-0.4,0-0.9-0.2-1.4-0.6c-0.5-0.4-0.8-0.8-0.8-1.2c0-0.1,0.7-1.5,2-4.3c1.4-2.8,2-4.3,2-4.5c-2.7-0.1-4.8-0.2-6.2-0.3
		c-4.1-0.3-6.4-0.5-7-0.6c-0.6-0.1-1.9-0.5-4-1.2c-2.1-0.6-3.3-1-3.6-1c-1.7,0-4.3,1.8-7.5,5.4c-3.8,4.2-5.6,8.3-5.6,12.4v5
		c0,2.6,0.9,5.5,2.6,8.5c2.1,3.6,4.9,6.4,8.5,8.6c4.3,2.6,9.3,4,15,4c3,0,5.8-0.9,8.5-2.8c2.7-1.9,4.4-2.8,5-2.8
		c0.8,0,1.3,0.2,1.5,0.7c0.2,0.4,0.3,0.9,0.3,1.5c0,2.1-2.1,4.8-6.3,8.2c-4.7,3.8-9.3,5.6-13.8,5.6h-6c-5.2,0-10.7-2.5-16.4-7.6
		c-5.9-5.3-8.9-10.6-8.9-15.9V31c0.1-1.1,0.3-2.2,0.4-3.4c0.7-2.9,2.1-5.8,4.2-8.9c3-4.3,7-8.5,12.3-12.5c-2-0.5-3.8-1-5.4-1.3
		c-2.6-0.6-4.6-0.9-5.8-0.9c-3.6,0-6.2,1.8-7.9,5.3c-1.6,3.6-2.7,5.3-3.2,5.3c-0.8,0-1.3-0.2-1.5-0.7c-0.2-0.5-0.3-1.2-0.3-2.1
		c0-3.9,2.1-7.8,6.3-11.5c4.2-3.8,8.5-5.7,12.8-5.7h8.5L169.6,0c3.8-1,6.5-1.7,7.9-2.2c1.4-0.4,2.8-0.8,4-1.2c0.5,0,1,0.2,1.6,0.6
		C183.7-2.5,184-2.1,184-1.6z"/>
	<path fill="#B3282D" d="M226.1,43.6c0,5.3-2,10.8-6,16.5c-3.5,5.1-7.9,9.4-13.1,13c-5,3.5-9.1,5.2-12.3,5.2h-3.8
		c-0.6,0-1.1-0.2-1.5-0.7c-0.4-0.5-0.5-0.9-0.5-1.3c0-0.6,1.1-1.2,3.2-1.7c6-1.5,11.2-4.3,15.6-8.3c1.9-1.7,3.7-4.6,5.3-8.5
		c1.6-3.9,2.4-7.4,2.4-10.3v-3.6c0-3.5-1.1-7.3-3.2-11.5c-2.1-4.2-4-6.3-5.4-6.3c-0.2,0-1,0.4-2.3,1.1c-3.3,1.8-5.9,3.5-7.9,5v21.7
		c0,1.3,0.4,2.6,1.2,3.9c0.8,1.3,1.2,2.2,1.2,2.6c0,0.5-0.2,0.9-0.5,1c-0.3,0.2-0.7,0.2-1.2,0.2c-0.9-0.3-1.6-0.5-2.1-0.6
		c-1.8-0.4-3.4-0.7-4.6-0.7c-0.5,0-1.2,0.1-2.1,0.3c-0.9,0.2-1.6,0.5-2.2,0.9h-1.9v-2.5c0.5-0.8,1.1-1.6,1.7-2.4
		c0.4-0.8,0.5-1.7,0.5-2.8V6.5c0-0.6-0.6-1.4-1.9-2.4c-0.6-0.5-0.9-1-0.9-1.4c3.3-1.8,5.7-3.1,7.3-4c5-2.7,7.6-4,8-4
		c1.1,0,1.6,0.5,1.6,1.5c-1,1.3-1.9,2.5-2.8,3.5c-0.8,1-1.2,2.2-1.2,3.4c0,1.3,0,2.5-0.1,3.7c-0.1,1.2-0.2,2.2-0.4,3
		c0.1,2.4,0.3,4.8,0.4,7.2c0.1,2.4,0.2,4.1,0.2,5.2c0,0.8,0,1.6,0,2.4c-0.1,1.2-0.3,2-0.5,2.4h1.2c1.4-0.3,4.4-2,9-5.3
		c4.6-3.2,7.2-4.9,7.6-4.9c0.4,0,1.6,1,3.5,3c2.4,2.5,4.3,5.1,5.8,7.9c2,3.9,3,7.8,3,11.6L226.1,43.6L226.1,43.6z"/>
	<path fill="#B3282D" d="M251.4,61.7h-16.2v-1.3c0.8-1.5,1.4-2.6,1.7-3.4c0.6-1.3,0.9-2.7,0.9-4V29.1c0-1.3-0.4-2.2-1.2-2.7
		c-0.8-0.5-1.8-0.7-3.2-0.7c-0.7,0-1.5-0.6-2.4-1.7c0.8-0.8,2.8-2.2,6.1-4.1c3.3-1.9,5.2-2.9,5.6-2.9c1.1,0,2.4,1.4,3.8,4.1
		c0.4,0.9,1.1,2.3,1.8,4.1v29.1c0,1.4,0.4,2.6,1.1,3.8c0.9,1.2,1.6,2.1,1.9,2.6L251.4,61.7L251.4,61.7z M250.4,3.1
		c0,1.2-0.9,3.1-2.7,5.8c-1.9,3-3.6,4.4-5,4.4c-0.6,0-1.3-1.1-1.9-3.4c-0.7-2.3-1-4.3-1-6.2c0-1.8,0.5-3.3,1.4-4.3
		c1-1,2.2-1.5,3.6-1.5c1.5,0,2.8,0.5,3.9,1.5C249.9,0.5,250.4,1.7,250.4,3.1z"/>
	<path fill="#B3282D" d="M288.1,20l-9,13.2h-0.9c-0.1-0.4-0.1-0.9-0.1-1.6c0-0.4,0-0.9,0-1.5c0-0.6,0-1.1,0-1.4c0-0.9-0.2-1.6-0.5-2
		c-0.5-0.6-1.4-0.9-2.6-0.9c-0.7,0-1.6,0.6-2.7,1.8c-1.1,1.2-1.7,2.2-1.7,3v24.7c0,0.9,0.5,1.8,1.4,2.7c1,0.9,1.4,1.7,1.4,2.4
		c0,0.5-0.1,0.9-0.4,1c-0.3,0.2-0.7,0.2-1.2,0.2c-0.7-0.5-1.5-0.9-2.4-1.3c-1-0.4-2.1-0.6-3.3-0.6c-1.5,0-2.8,0.2-3.8,0.6
		c-1,0.4-2.1,0.8-3.2,1.3c-0.3,0-0.5,0-0.8,0c-0.2-0.3-0.4-0.7-0.8-1.3c0.7-0.9,1.3-1.5,1.6-1.9c1.1-1.5,1.6-2.6,1.6-3.5V30.9
		c0-2-0.7-3.4-2.2-4.3c-1.6-0.6-3.2-1.2-4.8-1.8c0-0.5,1.4-1.9,4.3-4.2c2.9-2.3,4.5-3.5,4.9-3.5c0.6,0.3,1.1,0.6,1.5,0.8
		c2.3,1.6,4.1,3.8,5.6,6.6c0.5-0.1,1.7-1.4,3.6-3.8c1.7-2.2,3.7-3.3,6.1-3.3c0.5,0,2,0.3,4.4,0.9C286.3,18.9,287.7,19.5,288.1,20z"
		/>
	<path fill="#B3282D" d="M335.2-4.1c-0.7,0.7-1.3,1.3-1.6,1.7c-1.1,1.4-1.6,2.8-1.6,4v51.7c0,0.4,0.4,1.5,1.3,3.4
		c0.9,1.9,1.3,3,1.3,3.4c0,1.1-0.4,1.6-1.3,1.6c-0.3,0-0.9-0.3-1.9-0.8c-1-0.5-2.1-0.8-3.3-0.8c-0.9,0-1.7,0.1-2.4,0.4
		c-1.5,0.6-2.4,0.9-2.8,0.9c-0.6,0-1-0.2-1.2-0.7c-0.2-0.5-0.3-1.1-0.3-1.8c0.2-0.7,0.3-1.3,0.3-1.8c0-0.4-0.1-1-0.3-1.7
		c-2.5,1.8-4.8,3.4-6.9,4.6c-2,1.2-4.1,1.8-6.3,1.8c-3.2,0-6.8-1.9-10.6-5.7c-4-4-6-7.8-6-11.3v-6c0-2.6,1.4-5.8,4.2-9.4
		c2.4-3,5.2-5.8,8.5-8.3c3.3-2.5,5.7-3.8,7.1-3.8h4.5c0.4,0,1.1,0.2,1.8,0.5c0.8,0.3,1.9,0.9,3.4,1.7l0.9-0.9V8.2
		c0-1.7-0.6-3.1-1.8-4.1c-1.2-1-1.8-1.6-1.8-2c3-1.7,5.3-2.9,6.8-3.7c4.7-2.5,7.3-3.7,8.1-3.7C334.6-5.3,335.2-4.9,335.2-4.1z
		 M321.7,48.2V31c-1.9-1.9-3.8-3.5-5.9-4.9c-2.3-1.5-4.3-2.2-6-2.2c-3.1,0-5.6,1.1-7.4,3.4c-1.9,2.3-2.8,5.1-2.8,8.4v1.6
		c-0.3,0.3-0.5,0.5-0.6,0.7c1.4,3.9,3.2,7.1,5.4,9.6c2.4,2.8,5.3,4.2,8.7,4.2h2.9c1.1,0,2.1-0.3,3.1-1
		C320,49.9,320.8,49.1,321.7,48.2z"/>
	<path fill="#B3282D" d="M439.4,28.2c0,2.5-0.6,5.8-1.9,9.8c-1.3,4-2.7,7.4-4.4,10c-1.7,2.6-4.4,5.4-8.2,8.3
		c-4.7,3.6-8.9,5.4-12.3,5.4h-2.8c-3,0-6.1-1.3-9.3-3.9c-2.6-2.4-5.3-4.8-7.9-7.2c-3.1-2.6-6-4-8.7-4c-3.3,0-5.3,1.6-6.1,4.8
		c-0.8,3.2-1.8,4.8-3.2,4.8c-0.5,0-0.9-0.2-1.2-0.7c-0.2-0.5-0.4-1-0.4-1.7c0-2.1,1.3-4.2,3.8-6.4c2.3-1.9,4.7-3.8,7-5.6
		c2.6-2.4,3.9-4.9,3.9-7.3v-6.2c0-5.7-1.5-8.7-4.6-9.1c-1.4-0.2-2.1-0.6-2.1-1.4c0-0.4,0.1-0.6,0.3-0.8c0.2-0.3,0.6-0.4,1.3-0.4h2.8
		c2,0,4.5-0.6,7.3-1.8c2.8-1.3,5.6-2.7,8.4-4c0.6,0,0.9,0.4,0.9,1.2c0,0.4-0.5,1.1-1.4,2c-0.9,0.9-1.4,1.8-1.4,2.7v16.9
		c0,0.9,0.3,1.6,0.9,2.3c0.6,0.7,0.9,1.1,0.9,1.4c0,0.6-1,1.1-3,1.5c-2,0.4-3.6,1.5-4.8,3.1c0.4,0.1,0.8,0.2,1.5,0.2
		c0.6,0,1.9,0.1,3.8,0.1c2,0,4.2,1,6.7,2.9c2.1,1.8,4.1,3.6,6.2,5.3c2.5,2,4.8,3,6.8,3c3.6,0,7.1-2.4,10.5-7.1
		c3.2-4.5,4.8-8.7,4.8-12.6v-2.8c0-5.7-1.9-10.7-5.7-15.1c-3.8-4.3-8-6.5-12.5-6.5h-11.3c-1.6,0.3-2.8,0.5-3.7,0.6
		c-2.6,0.4-4.3,0.6-5,0.6h-8.3c-2.5,0-4.7-0.6-6.4-1.7c-2.1-1.3-3.1-3.1-3.1-5.3c0-2.1,0.7-4,2-5.9c1.3-1.8,2.7-2.7,4.2-2.7
		c0.4,0,0.7,0.4,1,1.2c0.6,1.9,2.1,2.8,4.5,2.8c3-0.4,5.9-0.8,8.7-1.1c2.8-0.3,5-0.5,6.8-0.5h11.4c6.8,0,12.4,2.8,17,8.4
		c4.1,5,6.1,10.3,6.1,15.9L439.4,28.2L439.4,28.2z"/>
	<path fill="#B3282D" d="M476.4,26.5c0,0.5-1.7,1.9-5.1,4.2c-2.7,1.8-6,3.8-9.9,6.1c-3.6,2.1-5.8,3.3-6.6,3.8
		c-4.1,2.1-6.1,3.4-6.1,3.9c1.2,1.6,2.3,2.7,3.2,3.5c2.9,2.4,6.1,3.5,9.6,3.5c2.9,0,5.3-0.8,7.4-2.4c1.7-1.7,3.4-3.5,5.2-5.3
		c0.6,0,1,0.2,1.1,0.6c0.2,0.4,0.2,0.9,0.2,1.6c0,3.4-1.8,6.9-5.5,10.4c-3.7,3.6-7.1,5.3-10.2,5.3h-4.5c-3,0-6.3-2.1-9.9-6.2
		c-3.7-4.2-5.5-8.1-5.5-11.7v-8.6c0-3.5,1.8-7.3,5.4-11.4c3.9-4.4,7.8-6.6,11.6-6.6h3.2c1.5,0,4.6,1.4,9.3,4.2
		C474,24.2,476.4,25.9,476.4,26.5z M464.2,30.6c-2.1-1-4.6-3.3-7.4-6.9c-0.9-1.2-2.1-1.7-3.6-1.7c-1.7,0-3.2,0.8-4.6,2.4
		c-1.1,1.9-2.1,3.8-3.2,5.6v6.4c0.4,0.2,0.6,0.7,0.7,1.5c0.1,0.8,0.6,1.7,1.6,2.7c0.4-0.4,2.2-1.6,5.5-3.6
		C456.9,34.9,460.6,32.8,464.2,30.6z"/>
	<path fill="#B3282D" d="M522.8,57.3c0,4-2.8,8.5-8.3,13.4c-5.7,5.1-11.3,7.6-16.8,7.6h-2.9c-3,0-6.4-1.1-9.9-3.4
		c-3.2-2.1-4.8-3.6-4.8-4.7c1.9-1.5,3.4-2.6,4.4-3.4c3.1-2.3,5.1-3.7,5.8-4c0.6,3.3,2.5,5.8,5.5,7.6c2.3,1.3,4.4,2,6.3,2
		c2.2,0,4.6-1,7.2-3.1c2.8-2.2,4.2-4.6,4.2-7v-3.4c-0.4-1.3-0.6-2.2-0.8-3c-0.6-2.2-1.1-3.7-1.5-4.6c-2.2,2.9-4.6,5.3-7,7.2
		c-2.7,2.2-5.6,3.3-8.7,3.3c-4.4,0-8.1-1.8-11.2-5.5c-2.8-3.3-4.2-7-4.2-10.9v-3.2c0-4.2,1.6-8.3,4.9-12.5c2.7-3.4,6.1-6.4,10.3-9
		c3.8-2.3,6.7-3.5,8.8-3.5h3.4c0.6,0,2.1,0.3,4.6,0.9c0.8,0.2,2,0.5,3.6,0.9c0.2,0,1.1-0.3,2.8-0.9c0.5-0.2,1.4-0.5,2.5-0.9
		c0.4,0.2,0.6,0.4,0.7,0.5c0.5,0.5,0.8,0.9,0.8,1.3c-1.2,2-2.2,3.8-3,5.4c-1,1.8-1.5,3.4-1.5,4.6v4.5c0,1.1,0.8,4,2.4,8.7
		c1.6,4.7,2.4,7.3,2.4,8L522.8,57.3L522.8,57.3z M513.2,26.5c-1.1,0.7-2.1,1.2-3.1,1.5c-1,0.4-2.2,0.5-3.5,0.5
		c-1.5,0-3.4-0.5-5.6-1.4c-2.2-0.9-3.7-1.4-4.6-1.4c-1.7,0-3.2,1-4.7,3c-1.5,2-2.2,4.2-2.2,6.6c0,4.1,1,7.6,2.9,10.6
		c2.5,3.9,4.9,5.8,7.2,5.8h3.3c1.3-0.8,2.3-1.5,3-2c2-1.6,3-2.9,3-4.1c0-0.7-0.2-1.6-0.6-2.7c-0.4-1.1-0.6-1.9-0.6-2.3v-2.8
		c0-2.1,0.8-4.5,2.5-7.3C511.6,28.1,512.6,26.8,513.2,26.5z"/>
	<path fill="#B3282D" d="M561.6,20l-9,13.2h-0.9c-0.1-0.4-0.1-0.9-0.1-1.6c0-0.4,0-0.9,0-1.5c0-0.6,0-1.1,0-1.4c0-0.9-0.2-1.6-0.5-2
		c-0.5-0.6-1.4-0.9-2.6-0.9c-0.7,0-1.6,0.6-2.7,1.8c-1.1,1.2-1.7,2.2-1.7,3v24.7c0,0.9,0.5,1.8,1.4,2.7c1,0.9,1.4,1.7,1.4,2.4
		c0,0.5-0.1,0.9-0.4,1c-0.3,0.2-0.7,0.2-1.2,0.2c-0.7-0.5-1.5-0.9-2.4-1.3c-1-0.4-2.1-0.6-3.3-0.6c-1.5,0-2.8,0.2-3.8,0.6
		c-1,0.4-2.1,0.8-3.2,1.3c-0.3,0-0.5,0-0.8,0c-0.2-0.3-0.4-0.7-0.8-1.3c0.7-0.9,1.3-1.5,1.6-1.9c1.1-1.5,1.6-2.6,1.6-3.5V30.9
		c0-2-0.7-3.4-2.2-4.3c-1.6-0.6-3.2-1.2-4.8-1.8c0-0.5,1.4-1.9,4.3-4.2c2.9-2.3,4.5-3.5,4.9-3.5c0.6,0.3,1.1,0.6,1.5,0.8
		c2.3,1.6,4.1,3.8,5.6,6.6c0.5-0.1,1.7-1.4,3.6-3.8c1.7-2.2,3.7-3.3,6.1-3.3c0.5,0,2,0.3,4.4,0.9C559.8,18.9,561.2,19.5,561.6,20z"
		/>
	<path fill="#B3282D" d="M601.7,26.5c0,0.5-1.7,1.9-5.1,4.2c-2.7,1.8-6,3.8-9.9,6.1c-3.6,2.1-5.8,3.3-6.6,3.8
		c-4.1,2.1-6.1,3.4-6.1,3.9c1.2,1.6,2.3,2.7,3.2,3.5c2.9,2.4,6.1,3.5,9.6,3.5c2.9,0,5.3-0.8,7.4-2.4c1.7-1.7,3.4-3.5,5.2-5.3
		c0.6,0,1,0.2,1.1,0.6c0.2,0.4,0.2,0.9,0.2,1.6c0,3.4-1.8,6.9-5.5,10.4c-3.7,3.6-7.1,5.3-10.2,5.3h-4.5c-3,0-6.3-2.1-9.9-6.2
		c-3.7-4.2-5.5-8.1-5.5-11.7v-8.6c0-3.5,1.8-7.3,5.4-11.4c3.9-4.4,7.8-6.6,11.6-6.6h3.2c1.5,0,4.6,1.4,9.3,4.2
		C599.4,24.2,601.7,25.9,601.7,26.5z M589.5,30.6c-2.1-1-4.6-3.3-7.4-6.9c-0.9-1.2-2.1-1.7-3.6-1.7c-1.7,0-3.2,0.8-4.6,2.4
		c-1.1,1.9-2.1,3.8-3.2,5.6v6.4c0.4,0.2,0.6,0.7,0.7,1.5c0.1,0.8,0.6,1.7,1.6,2.7c0.4-0.4,2.2-1.6,5.5-3.6
		C582.3,34.9,585.9,32.8,589.5,30.6z"/>
	<path fill="#B3282D" d="M642,26.5c0,0.5-1.7,1.9-5.1,4.2c-2.7,1.8-6,3.8-9.9,6.1c-3.6,2.1-5.8,3.3-6.6,3.8
		c-4.1,2.1-6.1,3.4-6.1,3.9c1.2,1.6,2.3,2.7,3.2,3.5c2.9,2.4,6.1,3.5,9.6,3.5c2.9,0,5.3-0.8,7.4-2.4c1.7-1.7,3.4-3.5,5.2-5.3
		c0.6,0,1,0.2,1.1,0.6c0.2,0.4,0.2,0.9,0.2,1.6c0,3.4-1.8,6.9-5.5,10.4c-3.7,3.6-7.1,5.3-10.2,5.3h-4.5c-3,0-6.3-2.1-9.9-6.2
		c-3.7-4.2-5.5-8.1-5.5-11.7v-8.6c0-3.5,1.8-7.3,5.4-11.4c3.9-4.4,7.8-6.6,11.6-6.6h3.2c1.5,0,4.6,1.4,9.3,4.2
		C639.6,24.2,642,25.9,642,26.5z M629.8,30.6c-2.1-1-4.6-3.3-7.4-6.9c-0.9-1.2-2.1-1.7-3.6-1.7c-1.7,0-3.2,0.8-4.6,2.4
		c-1.1,1.9-2.1,3.8-3.2,5.6v6.4c0.4,0.2,0.6,0.7,0.7,1.5c0.1,0.8,0.6,1.7,1.6,2.7c0.4-0.4,2.2-1.6,5.5-3.6
		C622.5,34.9,626.2,32.8,629.8,30.6z"/>
	<path fill="#B3282D" d="M730.4-3.5c-1.3,1.7-2.4,3.2-3.4,4.8c-1.1,1.7-1.6,3.5-1.6,5.2v29.6c0.1,0.4,0.3,0.9,0.6,1.5
		c0.2,0.5,0.4,1.1,0.4,1.6c0,0.4,0,0.8-0.1,1.4c-0.1,0.6-0.2,1.2-0.2,1.7c-0.5,3.5-2.3,6.9-5.3,10.1c-2.5,2.6-5.6,4.9-9.1,6.8
		c-3.1,1.6-5.5,2.4-7.1,2.4h-6.8c-2.5,0-5.7-1.4-9.5-4.2c-3.8-2.8-6.3-4.2-7.4-4.2c-0.3,0-0.6-0.2-1-0.5c-0.4-0.3-0.6-0.7-0.6-1
		c0-0.2,2.3-2.1,6.9-5.8c4.6-3.6,7.2-5.4,7.8-5.4c1,0,1.5,0.5,1.5,1.5c0,0.4-0.3,0.9-0.9,1.3c-0.6,0.5-0.9,1-0.9,1.5
		c0,1.2,1.3,3.4,3.8,6.5c3.1,3.8,6.1,5.6,9,5.6c1.6,0,3.2-0.8,4.9-2.4c1.9-1.9,2.9-4.1,2.9-6.6v-28c0-2.9-0.6-4.7-1.9-5.5
		c-1.3-0.8-2.6-1.5-4-2.3c0.8-1.1,2-1.9,3.4-2.4c2.6-1,4.1-1.8,4.4-2.5c0.2-0.1,0.3-0.3,0.5-0.5c0,0,0.3-0.1,0.8-0.1
		c0.7,0,1.3-0.3,1.9-1c0.6-0.7,1-1.4,1.2-2.1c-3,1.4-5.9,2.8-8.8,4.2C709,8.5,706.4,9,703.9,9h-6.2l-12.8-4.1
		c-0.6,0-1.3,0.3-1.9,0.8c-0.7,0.5-1.2,0.8-1.5,0.8c-0.3,0-0.5-0.1-0.8-0.3c-0.5-0.4-0.8-0.9-0.8-1.6c0-0.3,1.4-2,4.2-5.2
		c2.8-3.2,4.4-4.7,4.9-4.7c2.1,0.8,4.3,1.6,6.5,2.3c4.3,1.5,7.4,2.3,9.1,2.3h9.1c1.7,0,4.1-0.5,7-1.5c2.8-1.1,5.5-2.1,8.3-3.2
		C729.8-5.3,730.4-4.7,730.4-3.5z"/>
	<path fill="#B3282D" d="M779.3,56.5c0,0.4-1.4,1.4-4.2,3.2c-0.9,0.6-2.3,1.5-4.2,2.6c-0.5,0-1.8-0.9-4-2.7
		c-2.5-2.1-3.7-3.8-3.7-5.1V33.6c0-1.7-0.4-3.1-1.1-4.1s-2.3-2.5-4.9-4.3l-9.8,5.7v24.2c0,2.1,0.4,3.4,1.1,3.9
		c0.4,0.3,0.6,0.8,0.6,1.6v1h-2.3c-0.1-0.1-0.4-0.3-0.9-0.5c-1.4-0.7-3-1.1-4.6-1.1c-1.2,0-2.8,0.5-4.9,1.6h-1.3
		c-0.1-0.4-0.1-0.8-0.1-1.1c0-0.1,0-0.3,0-0.5c0-0.4,0.4-1.7,1.2-3.6c0.8-2,1.2-3.2,1.2-3.6V29.8c0-2.1-1.1-3.6-3.4-4.4
		c-2.3-0.8-3.4-1.4-3.4-1.8c0-0.5,1.5-1.7,4.4-3.7c0.9-0.6,2.4-1.6,4.4-2.8c1.7,0,3.5,1.3,5.2,4c1.1,1.9,2.2,3.8,3.3,5.7l15.7-9.5
		c2.3,0.9,4.6,2.7,6.8,5.4c2.4,2.9,3.6,5.5,3.6,7.9V49c0,4,0.9,6.1,2.8,6.1C778.4,55.2,779.3,55.7,779.3,56.5z"/>
	<path fill="#B3282D" d="M819.7,49.4c0,2.2-1.6,4.8-4.8,7.6c-3.7,3.2-7.6,4.8-11.7,4.8c-5.9,0-10.7-2.5-14.4-7.4
		c-3-3.9-4.5-7.6-4.5-10.9v-7.3c0-3.7,1.9-7.6,5.6-11.9c4.1-4.7,8.4-7,13.1-7c1.3,0,3.3,0.5,5.9,1.4c0.8,0.3,2,0.8,3.6,1.4h2.5
		c0.4,0,0.7-0.1,1.1-0.4c0.9-0.6,1.6-0.9,2-0.9c1.1,0,1.6,0.4,1.6,1.3c0,0.9-1,2.5-3,4.6c-2.3,2.4-4.5,3.6-6.5,3.6
		c-2.1,0-5-0.8-8.9-2.5c-1.9-0.8-3.5-1.3-4.7-1.3c-2.1,0-4,1-5.5,2.9c-1.2,1.5-1.7,2.7-1.7,3.7v3.5c0,2.7,1.8,5.9,5.4,9.8
		c3.8,4,7.3,6,10.4,6h4.1c1.5,0,2.9-0.5,4.3-1.6c1.4-1.1,2.8-2.2,4.2-3.4h1.9V49.4z"/>
	<path fill="#B3282D" d="M835.2,54.1c0,1.1-0.9,2.6-2.8,4.6c-1.9,2-3.5,3-4.9,3c-0.7,0-1.3-0.7-2-2.1c-0.6-1.4-1-3-1-4.8
		c0-1.8,0.5-3.3,1.4-4.3c1-1,2.2-1.5,3.6-1.5c1.5,0,2.8,0.5,3.9,1.5C834.6,51.6,835.2,52.8,835.2,54.1z"/>
</g>
</svg>
