<?xml version="1.0" encoding="utf-8"?>
<!-- Generator: Adobe Illustrator 17.1.0, SVG Export Plug-In . SVG Version: 6.00 Build 0)  -->
<!DOCTYPE svg PUBLIC "-//W3C//DTD SVG 1.1//EN" "http://www.w3.org/Graphics/SVG/1.1/DTD/svg11.dtd">
<svg version="1.1" id="Layer_1" xmlns="http://www.w3.org/2000/svg" xmlns:xlink="http://www.w3.org/1999/xlink" x="0px" y="0px"
	 viewBox="0 0 1440 195.407" enable-background="new 0 0 1440 195.407" xml:space="preserve">
<g>
	<path fill="#B3282D" d="M142.048,25.313c0,0.354-3.909,4.462-11.722,12.323c-4.263,4.244-7.193,7.563-8.792,9.961
		c-3.996,5.861-7.638,12.211-10.922,19.048c-1.245,2.664-2.797,3.996-4.662,3.996c-0.889,0-1.844-0.42-2.864-1.265
		c-1.022-0.843-1.532-1.665-1.532-2.464c0-0.177,1.353-3.018,4.063-8.525c2.708-5.505,4.062-8.479,4.062-8.925
		c-5.417-0.267-9.503-0.487-12.255-0.666c-8.082-0.533-12.7-0.933-13.853-1.199c-1.155-0.267-3.775-1.043-7.859-2.331
		c-4.085-1.286-6.483-1.932-7.193-1.932c-3.463,0-8.438,3.597-14.919,10.79c-7.459,8.348-11.189,16.563-11.189,24.643v9.99
		c0,5.241,1.731,10.835,5.195,16.784c4.173,7.105,9.768,12.788,16.784,17.05c8.612,5.241,18.515,7.859,29.704,7.859
		c5.861,0,11.5-1.865,16.917-5.595c5.416-3.729,8.702-5.595,9.857-5.595c1.599,0,2.618,0.446,3.064,1.332
		c0.443,0.889,0.666,1.865,0.666,2.931c0,4.175-4.175,9.591-12.521,16.251c-9.324,7.459-18.428,11.189-27.307,11.189H72.916
		c-10.39,0-21.269-5.016-32.635-15.052c-11.812-10.478-17.716-21-17.716-31.569V89.957c0.267-2.218,0.533-4.439,0.799-6.66
		c1.419-5.682,4.217-11.588,8.392-17.716c5.861-8.525,13.986-16.784,24.376-24.776c-3.996-1.065-7.592-1.952-10.79-2.664
		c-5.241-1.153-9.104-1.731-11.588-1.731c-7.193,0-12.388,3.53-15.585,10.589c-3.197,7.06-5.284,10.59-6.261,10.59
		c-1.598,0-2.62-0.464-3.063-1.395c-0.445-0.928-0.666-2.323-0.666-4.181c0-7.789,4.196-15.42,12.588-22.901
		c8.392-7.478,16.85-11.218,25.375-11.218h16.784l50.484,10.469c7.637-2.032,12.875-3.468,15.718-4.306
		c2.841-0.839,5.505-1.657,7.992-2.452c0.976,0,2.042,0.377,3.197,1.126C141.47,23.482,142.048,24.344,142.048,25.313z"/>
	<path fill="#B3282D" d="M225.698,114.999c0,10.479-3.996,21.402-11.989,32.768c-7.016,10.034-15.674,18.648-25.975,25.841
		c-9.857,6.927-18.028,10.39-24.509,10.39h-7.593c-1.245,0-2.221-0.489-2.93-1.465c-0.712-0.979-1.066-1.821-1.066-2.531
		c0-1.245,2.085-2.354,6.261-3.33c11.988-2.931,22.333-8.438,31.037-16.518c3.817-3.463,7.347-9.104,10.589-16.917
		c3.241-7.813,4.862-14.652,4.862-20.514v-7.193c0-6.927-2.131-14.54-6.394-22.844c-4.263-8.302-7.859-12.455-10.79-12.455
		c-0.356,0-1.911,0.755-4.662,2.265c-6.483,3.553-11.678,6.883-15.585,9.99v43.024c0,2.577,0.776,5.174,2.332,7.792
		c1.552,2.62,2.331,4.329,2.331,5.128c0,1.065-0.333,1.754-0.999,2.064c-0.666,0.312-1.445,0.466-2.331,0.466
		c-1.778-0.533-3.197-0.933-4.263-1.199c-3.643-0.887-6.66-1.332-9.058-1.332c-0.978,0-2.354,0.223-4.129,0.666
		c-1.778,0.445-3.243,1.065-4.396,1.865h-3.863v-5.058c1.065-1.596,2.175-3.193,3.33-4.791c0.71-1.599,1.065-3.461,1.065-5.59
		V41.421c0-1.153-1.288-2.751-3.863-4.793c-1.243-0.974-1.865-1.906-1.865-2.795c6.481-3.549,11.322-6.211,14.519-7.986
		c9.857-5.324,15.14-7.986,15.852-7.986c2.131,0,3.197,0.976,3.197,2.924c-2.044,2.57-3.863,4.897-5.461,6.979
		c-1.599,2.082-2.398,4.319-2.398,6.71c0,2.571-0.066,5.029-0.2,7.376s-0.422,4.364-0.866,6.046
		c0.267,4.787,0.51,9.551,0.732,14.296c0.221,4.746,0.333,8.184,0.333,10.315c0,1.599,0,3.197,0,4.795
		c-0.179,2.398-0.533,3.996-1.065,4.795h2.398c2.751-0.533,8.702-4.017,17.849-10.457c9.145-6.438,14.207-9.657,15.185-9.657
		c0.887,0,3.197,1.955,6.927,5.861c4.795,4.975,8.612,10.213,11.456,15.718c3.996,7.726,5.994,15.408,5.994,23.044V114.999z"/>
	<path fill="#B3282D" d="M275.916,150.964h-32.235V148.3c1.598-3.018,2.708-5.239,3.33-6.66c1.243-2.664,1.865-5.328,1.865-7.992
		v-47.42c0-2.664-0.787-4.462-2.356-5.395c-1.569-0.933-3.655-1.399-6.254-1.399c-1.436,0-3.007-1.109-4.71-3.33
		c1.509-1.599,5.549-4.283,12.122-8.059c6.571-3.773,10.256-5.661,11.056-5.661c2.219,0,4.75,2.709,7.593,8.125
		c0.887,1.778,2.085,4.485,3.597,8.125v57.677c0,2.753,0.709,5.241,2.131,7.459c1.865,2.397,3.151,4.129,3.863,5.195V150.964z
		 M273.918,34.521c0,2.312-1.778,6.18-5.328,11.602c-3.819,5.869-7.106,8.802-9.857,8.802c-1.245,0-2.531-2.244-3.863-6.733
		c-1.332-4.49-1.998-8.602-1.998-12.336c0-3.645,0.953-6.467,2.864-8.467c1.909-2,4.284-3.001,7.126-3.001
		c2.931,0,5.505,1.024,7.726,3.068C272.806,29.499,273.918,31.855,273.918,34.521z"/>
	<path fill="#B3282D" d="M348.778,68.245l-17.849,26.108h-1.865c-0.179-0.71-0.267-1.775-0.267-3.197c0-0.71,0-1.709,0-2.997
		c0-1.287,0-2.198,0-2.731c0-1.865-0.35-3.197-1.047-3.996c-0.961-1.153-2.706-1.731-5.237-1.731c-1.396,0-3.207,1.201-5.432,3.599
		c-2.225,2.399-3.336,4.397-3.336,5.996v49.041c0,1.778,0.953,3.578,2.864,5.399c1.908,1.821,2.864,3.397,2.864,4.729
		c0,1.067-0.29,1.756-0.866,2.066c-0.579,0.312-1.355,0.466-2.331,0.466c-1.332-0.895-2.954-1.746-4.862-2.554
		c-1.911-0.805-4.109-1.209-6.594-1.209c-3.02,0-5.551,0.404-7.593,1.209c-2.044,0.808-4.175,1.659-6.394,2.554
		c-0.533,0-1.066,0-1.599,0c-0.356-0.62-0.889-1.465-1.598-2.533c1.419-1.688,2.485-2.977,3.197-3.865
		c2.131-2.933,3.197-5.243,3.197-6.933V89.811c0-3.998-1.465-6.841-4.396-8.531c-3.197-1.155-6.394-2.356-9.591-3.601
		c0-0.976,2.864-3.752,8.592-8.33c5.728-4.577,8.991-6.866,9.79-6.866c1.243,0.556,2.219,1.099,2.931,1.632
		c4.529,3.109,8.213,7.459,11.056,13.054c1.065-0.266,3.417-2.751,7.06-7.459c3.374-4.35,7.414-6.527,12.122-6.527
		c1.065,0,3.996,0.579,8.792,1.732C345.181,66.07,347.979,67.179,348.778,68.245z"/>
	<path fill="#B3282D" d="M442.286,20.389c-1.421,1.421-2.487,2.577-3.197,3.463c-2.131,2.841-3.197,5.503-3.197,7.988v102.648
		c0,0.712,0.866,2.931,2.598,6.658c1.731,3.728,2.597,5.946,2.597,6.656c0,2.131-0.845,3.195-2.531,3.195
		c-0.533,0-1.777-0.537-3.729-1.615c-1.955-1.076-4.129-1.615-6.527-1.615c-1.865,0-3.463,0.266-4.795,0.799
		c-2.93,1.155-4.751,1.731-5.461,1.731c-1.245,0-2.065-0.466-2.464-1.398c-0.4-0.933-0.6-2.152-0.6-3.663
		c0.354-1.332,0.533-2.531,0.533-3.597c0-0.887-0.179-2.042-0.533-3.463c-5.062,3.651-9.613,6.702-13.653,9.149
		c-4.042,2.448-8.238,3.671-12.587,3.671c-6.394,0-13.41-3.769-21.046-11.31c-7.992-7.893-11.988-15.389-11.988-22.486v-11.974
		c0-5.232,2.797-11.443,8.392-18.627c4.706-6.032,10.344-11.553,16.917-16.565c6.571-5.012,11.276-7.518,14.12-7.518h8.925
		c0.886,0,2.085,0.312,3.596,0.933c1.509,0.623,3.73,1.777,6.66,3.463l1.865-1.865V44.655c0-3.465-1.178-6.155-3.53-8.065
		c-2.354-1.911-3.53-3.266-3.53-4.067c5.948-3.288,10.434-5.732,13.454-7.33c9.235-4.887,14.563-7.333,15.984-7.333
		C441.041,17.86,442.286,18.703,442.286,20.389z M415.512,124.236V89.932c-3.729-3.811-7.638-7.047-11.722-9.707
		c-4.529-2.924-8.481-4.388-11.855-4.388c-6.127,0-11.056,2.283-14.786,6.848c-3.73,4.566-5.595,10.128-5.595,16.688v3.19
		c-0.622,0.533-1.022,0.976-1.199,1.33c2.841,7.713,6.394,14.095,10.656,19.146c4.706,5.497,10.478,8.244,17.316,8.244h5.728
		c2.131,0,4.173-0.664,6.127-1.994C411.959,127.605,413.734,125.922,415.512,124.236z"/>
	<path fill="#B3282D" d="M649.149,84.362c0,4.974-1.245,11.456-3.729,19.448c-2.487,7.992-5.395,14.608-8.725,19.847
		c-3.33,5.241-8.771,10.746-16.317,16.517c-9.414,7.193-17.583,10.79-24.509,10.79h-5.461c-5.95,0-12.078-2.575-18.382-7.726
		c-5.241-4.795-10.436-9.591-15.585-14.386c-6.217-5.239-11.988-7.859-17.316-7.859c-6.573,0-10.613,3.153-12.122,9.458
		c-1.511,6.306-3.597,9.458-6.261,9.458c-1.065,0-1.844-0.466-2.331-1.399c-0.489-0.932-0.732-2.064-0.732-3.396
		c0-4.083,2.531-8.346,7.593-12.788c4.616-3.73,9.278-7.459,13.986-11.189c5.149-4.795,7.726-9.635,7.726-14.52V84.362
		c0-11.277-3.02-17.271-9.058-17.982c-2.843-0.354-4.263-1.287-4.263-2.797c0-0.71,0.177-1.243,0.533-1.599
		c0.443-0.533,1.286-0.799,2.531-0.799h5.461c3.996,0,8.835-1.199,14.52-3.596c5.505-2.664,11.056-5.328,16.65-7.992
		c1.153,0,1.731,0.799,1.731,2.397c0,0.889-0.912,2.198-2.73,3.93c-1.821,1.731-2.731,3.486-2.731,5.261v33.567
		c0,1.688,0.62,3.197,1.865,4.529c1.243,1.332,1.865,2.265,1.865,2.797c0,1.155-1.955,2.154-5.861,2.997
		c-3.909,0.845-7.06,2.91-9.457,6.194c0.709,0.179,1.686,0.312,2.93,0.4c1.243,0.089,3.73,0.133,7.459,0.133
		c3.996,0,8.436,1.911,13.32,5.728c4.083,3.553,8.213,7.06,12.388,10.523c4.972,3.909,9.457,5.861,13.453,5.861
		c7.193,0,14.164-4.706,20.913-14.12c6.394-8.879,9.591-17.227,9.591-25.042v-5.461c0-11.366-3.775-21.333-11.322-29.904
		c-7.549-8.569-15.808-12.854-24.776-12.854h-22.512c-3.197,0.533-5.64,0.933-7.326,1.199c-5.151,0.799-8.438,1.199-9.857,1.199
		h-16.517c-4.974,0-9.237-1.151-12.788-3.453c-4.085-2.656-6.127-6.196-6.127-10.621c0-4.161,1.309-8.034,3.93-11.618
		c2.618-3.584,5.395-5.378,8.325-5.378c0.799,0,1.465,0.791,1.998,2.369c1.153,3.684,4.129,5.524,8.925,5.524
		c5.948-0.799,11.676-1.509,17.183-2.131c5.505-0.621,9.99-0.933,13.454-0.933h22.645c13.408,0,24.643,5.551,33.7,16.65
		c8.08,9.857,12.122,20.38,12.122,31.569V84.362z"/>
	<path fill="#B3282D" d="M722.543,80.997c0,1.063-3.376,3.854-10.124,8.375c-5.328,3.546-11.855,7.578-19.581,12.096
		c-7.193,4.167-11.545,6.648-13.054,7.445c-8.082,4.254-12.122,6.825-12.122,7.711c2.398,3.103,4.529,5.407,6.394,6.914
		c5.771,4.697,12.122,7.045,19.048,7.045c5.682,0,10.567-1.599,14.652-4.795c3.374-3.463,6.793-6.97,10.257-10.523
		c1.153,0,1.886,0.379,2.198,1.132c0.31,0.756,0.466,1.844,0.466,3.264c0,6.75-3.663,13.653-10.989,20.713
		c-7.326,7.06-14.099,10.59-20.313,10.59h-8.925c-5.861,0-12.434-4.123-19.714-12.369c-7.283-8.246-10.923-16.003-10.923-23.275
		V98.161c0-6.914,3.597-14.45,10.79-22.609c7.726-8.689,15.406-13.036,23.044-13.036h6.394c2.93,0,9.079,2.793,18.449,8.375
		C717.857,76.476,722.543,79.844,722.543,80.997z M698.299,89.291c-4.175-2.042-9.058-6.614-14.652-13.72
		c-1.865-2.308-4.219-3.463-7.06-3.463c-3.376,0-6.394,1.599-9.058,4.795c-2.131,3.729-4.219,7.459-6.26,11.189v12.654
		c0.799,0.445,1.265,1.444,1.398,2.997c0.133,1.555,1.176,3.31,3.13,5.262c0.71-0.799,4.35-3.151,10.923-7.06
		C683.914,97.772,691.106,93.553,698.299,89.291z"/>
	<path fill="#B3282D" d="M814.585,142.172c0,7.992-5.461,16.828-16.384,26.507c-11.368,10.034-22.512,15.052-33.435,15.052h-5.728
		c-6.04,0-12.61-2.275-19.714-6.823c-6.394-4.104-9.591-7.226-9.591-9.366c3.817-2.943,6.748-5.172,8.791-6.687
		c6.215-4.639,10.078-7.316,11.589-8.028c1.243,6.481,4.883,11.5,10.923,15.052c4.529,2.664,8.702,3.996,12.521,3.996
		c4.35,0,9.102-2.044,14.253-6.127c5.594-4.441,8.392-9.104,8.392-13.986v-6.66c-0.712-2.485-1.245-4.439-1.599-5.861
		c-1.245-4.35-2.221-7.414-2.931-9.191c-4.441,5.684-9.104,10.479-13.986,14.386c-5.328,4.352-11.102,6.527-17.316,6.527
		c-8.704,0-16.117-3.634-22.245-10.906c-5.595-6.649-8.392-13.876-8.392-21.679v-6.385c0-8.246,3.24-16.492,9.724-24.738
		c5.328-6.827,12.122-12.767,20.38-17.822c7.46-4.61,13.275-6.917,17.45-6.917h6.66c1.153,0,4.217,0.623,9.191,1.865
		c1.598,0.356,3.996,0.978,7.192,1.865c0.354,0,2.175-0.62,5.462-1.865c1.065-0.354,2.707-0.976,4.928-1.865
		c0.71,0.446,1.199,0.799,1.466,1.066c1.065,0.978,1.599,1.865,1.599,2.664c-2.311,3.909-4.309,7.459-5.994,10.656
		c-1.955,3.642-2.931,6.706-2.931,9.191v8.925c0,2.221,1.619,7.971,4.861,17.25c3.241,9.281,4.862,14.586,4.862,15.918V142.172z
		 M795.537,81.166c-2.132,1.332-4.196,2.354-6.194,3.063c-1.998,0.712-4.285,1.065-6.859,1.065c-3.021,0-6.706-0.909-11.057-2.73
		c-4.352-1.819-7.372-2.73-9.058-2.73c-3.286,0-6.373,1.973-9.258,5.919c-2.887,3.946-4.329,8.309-4.329,13.089
		c0,8.059,1.909,15.054,5.728,20.986c4.973,7.705,9.768,11.555,14.387,11.555h6.526c2.664-1.682,4.616-3.009,5.861-3.983
		c3.906-3.099,5.861-5.844,5.861-8.236c0-1.415-0.423-3.23-1.266-5.445c-0.846-2.214-1.266-3.763-1.266-4.649v-5.578
		c0-4.073,1.686-8.899,5.062-14.478C792.517,84.314,794.472,81.698,795.537,81.166z"/>
	<path fill="#B3282D" d="M891.71,68.245l-17.85,26.108h-1.865c-0.179-0.71-0.267-1.775-0.267-3.197c0-0.71,0-1.709,0-2.997
		c0-1.287,0-2.198,0-2.731c0-1.865-0.35-3.197-1.047-3.996c-0.961-1.153-2.705-1.731-5.236-1.731c-1.396,0-3.207,1.201-5.432,3.599
		c-2.226,2.399-3.337,4.397-3.337,5.996v49.041c0,1.778,0.953,3.578,2.864,5.399c1.908,1.821,2.863,3.397,2.863,4.729
		c0,1.067-0.289,1.756-0.865,2.066c-0.579,0.312-1.355,0.466-2.331,0.466c-1.332-0.895-2.953-1.746-4.862-2.554
		c-1.91-0.805-4.108-1.209-6.594-1.209c-3.02,0-5.551,0.404-7.592,1.209c-2.044,0.808-4.176,1.659-6.395,2.554
		c-0.532,0-1.065,0-1.598,0c-0.356-0.62-0.889-1.465-1.599-2.533c1.419-1.688,2.485-2.977,3.196-3.865
		c2.132-2.933,3.197-5.243,3.197-6.933V89.811c0-3.998-1.465-6.841-4.396-8.531c-3.197-1.155-6.394-2.356-9.591-3.601
		c0-0.976,2.864-3.752,8.592-8.33c5.728-4.577,8.991-6.866,9.79-6.866c1.243,0.556,2.219,1.099,2.931,1.632
		c4.529,3.109,8.213,7.459,11.056,13.054c1.065-0.266,3.418-2.751,7.06-7.459c3.374-4.35,7.414-6.527,12.122-6.527
		c1.065,0,3.996,0.579,8.791,1.732C888.113,66.07,890.91,67.179,891.71,68.245z"/>
	<path fill="#B3282D" d="M971.364,80.997c0,1.063-3.376,3.854-10.124,8.375c-5.328,3.546-11.854,7.578-19.581,12.096
		c-7.192,4.167-11.545,6.648-13.054,7.445c-8.082,4.254-12.121,6.825-12.121,7.711c2.397,3.103,4.528,5.407,6.394,6.914
		c5.771,4.697,12.121,7.045,19.048,7.045c5.682,0,10.566-1.599,14.652-4.795c3.374-3.463,6.794-6.97,10.257-10.523
		c1.153,0,1.886,0.379,2.198,1.132c0.31,0.756,0.466,1.844,0.466,3.264c0,6.75-3.663,13.653-10.989,20.713
		c-7.326,7.06-14.099,10.59-20.313,10.59h-8.925c-5.861,0-12.434-4.123-19.714-12.369c-7.282-8.246-10.923-16.003-10.923-23.275
		V98.161c0-6.914,3.597-14.45,10.789-22.609c7.727-8.689,15.406-13.036,23.045-13.036h6.394c2.931,0,9.078,2.793,18.448,8.375
		C966.679,76.476,971.364,79.844,971.364,80.997z M947.121,89.291c-4.176-2.042-9.059-6.614-14.652-13.72
		c-1.865-2.308-4.219-3.463-7.061-3.463c-3.375,0-6.394,1.599-9.058,4.795c-2.131,3.729-4.219,7.459-6.261,11.189v12.654
		c0.8,0.445,1.266,1.444,1.399,2.997c0.133,1.555,1.176,3.31,3.13,5.262c0.71-0.799,4.35-3.151,10.923-7.06
		C932.734,97.772,939.928,93.553,947.121,89.291z"/>
	<path fill="#B3282D" d="M1051.285,80.997c0,1.063-3.376,3.854-10.124,8.375c-5.328,3.546-11.854,7.578-19.581,12.096
		c-7.192,4.167-11.545,6.648-13.054,7.445c-8.082,4.254-12.121,6.825-12.121,7.711c2.397,3.103,4.528,5.407,6.394,6.914
		c5.771,4.697,12.121,7.045,19.048,7.045c5.682,0,10.566-1.599,14.652-4.795c3.374-3.463,6.794-6.97,10.257-10.523
		c1.153,0,1.886,0.379,2.198,1.132c0.31,0.756,0.466,1.844,0.466,3.264c0,6.75-3.663,13.653-10.989,20.713
		c-7.326,7.06-14.099,10.59-20.313,10.59h-8.925c-5.861,0-12.434-4.123-19.714-12.369c-7.282-8.246-10.923-16.003-10.923-23.275
		V98.161c0-6.914,3.597-14.45,10.789-22.609c7.727-8.689,15.406-13.036,23.045-13.036h6.394c2.931,0,9.078,2.793,18.448,8.375
		C1046.6,76.476,1051.285,79.844,1051.285,80.997z M1027.042,89.291c-4.176-2.042-9.059-6.614-14.652-13.72
		c-1.865-2.308-4.219-3.463-7.061-3.463c-3.375,0-6.394,1.599-9.058,4.795c-2.131,3.729-4.219,7.459-6.261,11.189v12.654
		c0.8,0.445,1.266,1.444,1.399,2.997c0.133,1.555,1.176,3.31,3.13,5.262c0.71-0.799,4.35-3.151,10.923-7.06
		C1012.655,97.772,1019.849,93.553,1027.042,89.291z"/>
	<path fill="#B3282D" d="M1226.712,21.588c-2.576,3.284-4.795,6.434-6.66,9.449c-2.131,3.461-3.196,6.922-3.196,10.384v58.83
		c0.267,0.889,0.643,1.865,1.132,2.93c0.487,1.066,0.732,2.129,0.732,3.193c0,0.712-0.089,1.665-0.266,2.862
		c-0.18,1.199-0.312,2.329-0.4,3.395c-0.978,7.01-4.484,13.709-10.522,20.099c-5.062,5.237-11.102,9.718-18.116,13.443
		c-6.127,3.195-10.835,4.791-14.119,4.791h-13.587c-4.975,0-11.278-2.797-18.915-8.392c-7.638-5.595-12.521-8.392-14.652-8.392
		c-0.532,0-1.178-0.333-1.932-0.999c-0.755-0.666-1.132-1.353-1.132-2.064c0-0.443,4.572-4.263,13.72-11.456
		c9.146-7.193,14.297-10.79,15.452-10.79c2.041,0,3.063,1.022,3.063,3.063c0,0.799-0.622,1.688-1.865,2.664
		c-1.244,0.979-1.864,1.955-1.864,2.931c0,2.397,2.53,6.706,7.592,12.921c6.128,7.459,12.076,11.189,17.85,11.189
		c3.197,0,6.438-1.599,9.724-4.795c3.817-3.729,5.729-8.125,5.729-13.187V67.978c0-5.771-1.266-9.412-3.797-10.922
		c-2.53-1.509-5.174-3.064-7.926-4.662c1.687-2.219,3.907-3.817,6.66-4.795c5.149-1.952,8.08-3.64,8.792-5.062
		c0.354-0.266,0.666-0.62,0.933-1.065c0.087-0.087,0.62-0.133,1.598-0.133c1.332,0,2.598-0.666,3.797-1.998
		c1.198-1.332,1.975-2.751,2.331-4.262c-5.861,2.843-11.679,5.64-17.45,8.392c-5.151,1.865-10.256,2.797-15.318,2.797h-12.388
		l-25.441-8.125c-1.245,0-2.531,0.533-3.863,1.599c-1.332,1.065-2.311,1.598-2.931,1.598c-0.532,0-1.065-0.177-1.599-0.531
		c-1.065-0.795-1.598-1.854-1.598-3.182c0-0.62,2.774-4.069,8.325-10.346c5.549-6.277,8.769-9.418,9.657-9.418
		c4.262,1.582,8.568,3.12,12.92,4.612c8.613,3.076,14.652,4.612,18.116,4.612h17.982c3.463,0,8.079-0.966,13.854-2.899
		c5.505-2.106,11.01-4.215,16.517-6.325C1225.69,17.86,1226.712,19.103,1226.712,21.588z"/>
	<path fill="#B3282D" d="M1323.951,140.545c0,0.712-2.748,2.841-8.242,6.392c-1.773,1.155-4.564,2.887-8.373,5.193
		c-0.972,0-3.619-1.775-7.942-5.328c-4.941-4.083-7.411-7.458-7.411-10.122V95.258c0-3.374-0.697-6.082-2.092-8.124
		c-1.395-2.042-4.654-4.882-9.778-8.525l-19.434,11.399v48.045c0,4.171,0.71,6.745,2.132,7.719c0.799,0.533,1.198,1.599,1.198,3.195
		v1.996h-4.662c-0.266-0.267-0.845-0.62-1.731-1.065c-2.843-1.419-5.86-2.131-9.058-2.131c-2.397,0-5.641,1.065-9.724,3.197h-2.531
		c-0.179-0.797-0.267-1.507-0.267-2.129c0-0.266,0-0.62,0-1.063c0-0.887,0.776-3.282,2.331-7.185
		c1.553-3.902,2.331-6.254,2.331-7.054V87.63c0-4.256-2.243-7.162-6.727-8.714c-4.485-1.553-6.727-2.727-6.727-3.526
		c0-0.974,2.885-3.413,8.658-7.318c1.865-1.24,4.75-3.103,8.658-5.588c3.463,0,6.881,2.652,10.257,7.951
		c2.131,3.8,4.306,7.599,6.526,11.397l31.17-18.782c4.616,1.865,9.102,5.416,13.454,10.652c4.705,5.682,7.06,10.921,7.06,15.712
		v36.352c0,7.99,1.818,12.051,5.461,12.184C1322.13,138.083,1323.951,138.949,1323.951,140.545z"/>
	<path fill="#B3282D" d="M1404.005,126.488c0,4.441-3.196,9.458-9.59,15.052c-7.283,6.307-15.009,9.458-23.178,9.458
		c-11.635,0-21.18-4.88-28.639-14.642c-5.95-7.807-8.925-15.039-8.925-21.695v-14.509c0-7.276,3.684-15.173,11.056-23.691
		c8.08-9.316,16.738-13.976,25.975-13.976c2.664,0,6.571,0.918,11.722,2.75c1.687,0.612,4.04,1.571,7.061,2.878h5.062
		c0.71,0,1.465-0.267,2.265-0.799c1.864-1.242,3.196-1.865,3.996-1.865c2.131,0,3.196,0.889,3.196,2.664
		c0,1.865-1.998,4.885-5.994,9.058c-4.618,4.795-8.924,7.193-12.92,7.193c-4.086,0-9.991-1.665-17.717-4.995
		c-3.819-1.665-6.927-2.498-9.324-2.498c-4.263,0-7.904,1.952-10.923,5.853c-2.31,2.928-3.463,5.368-3.463,7.318v6.918
		c0,5.322,3.597,11.795,10.789,19.421c7.547,7.984,14.43,11.974,20.646,11.974h8.126c2.931,0,5.771-1.086,8.525-3.264
		c2.751-2.175,5.548-4.417,8.392-6.727h3.862V126.488z"/>
	<path fill="#B3282D" d="M1434.774,135.906c0,2.137-1.844,5.187-5.527,9.149c-3.687,3.963-6.906,5.942-9.657,5.942
		c-1.332,0-2.644-1.4-3.93-4.206c-1.288-2.806-1.932-5.988-1.932-9.549c0-3.65,0.953-6.477,2.864-8.481
		c1.908-2.002,4.283-3.006,7.126-3.006c2.931,0,5.505,1.024,7.726,3.072C1433.663,130.875,1434.774,133.235,1434.774,135.906z"/>
</g>
<g>
</g>
<g>
</g>
<g>
</g>
<g>
</g>
<g>
</g>
<g>
</g>
</svg>
